<?xml version="1.0" standalone="no"?>
<!DOCTYPE svg PUBLIC "-//W3C//DTD SVG 20010904//EN"
 "http://www.w3.org/TR/2001/REC-SVG-20010904/DTD/svg10.dtd">
<svg version="1.0" xmlns="http://www.w3.org/2000/svg"
 width="700.000000pt" height="700.000000pt" viewBox="0 0 700.000000 700.000000"
 preserveAspectRatio="xMidYMid meet">
<metadata>
Created by potrace 1.11, written by Peter Selinger 2001-2013
</metadata>
<g transform="translate(0.000000,700.000000) scale(0.100000,-0.100000)"
fill="#000000" stroke="none">
<path d="M818 6980 c-414 -85 -724 -402 -802 -819 -18 -96 -14 -293 8 -386 49
-205 137 -365 283 -508 335 -329 855 -384 1245 -132 l71 47 494 -494 c271
-271 493 -496 493 -500 0 -5 -15 -29 -34 -55 -75 -108 -130 -234 -167 -383
-36 -147 -33 -378 6 -525 36 -136 92 -259 161 -358 19 -26 34 -50 34 -55 0 -4
-108 -115 -241 -247 -133 -132 -254 -258 -270 -279 -95 -128 59 -282 187 -187
21 16 147 137 279 270 132 133 243 241 247 241 5 0 30 -16 56 -35 93 -66 287
-150 393 -170 123 -22 186 -27 294 -21 212 11 395 71 568 186 32 22 62 40 66
40 3 0 228 -222 500 -494 l493 -494 -39 -58 c-71 -107 -122 -234 -149 -370
-15 -78 -20 -259 -9 -305 3 -13 7 -37 9 -54 14 -118 94 -306 184 -427 126
-170 333 -313 536 -368 102 -28 124 -31 257 -35 105 -2 138 1 289 31 39 8 170
65 235 102 258 150 438 409 489 707 14 78 14 276 1 340 -90 446 -428 769 -867
830 -58 8 -209 8 -263 0 -118 -17 -303 -81 -364 -125 -16 -11 -32 -20 -36 -20
-3 0 -22 -12 -41 -27 l-35 -26 -497 496 c-439 439 -496 499 -485 514 37 53
112 186 135 239 29 67 64 186 74 249 3 22 7 41 9 43 2 3 530 5 583 3 6 -1 12
-7 12 -13 0 -7 13 -37 28 -65 54 -104 178 -207 277 -229 157 -36 271 -18 390
62 309 204 255 684 -91 814 -231 86 -478 -13 -584 -234 l-29 -61 -292 0 -292
0 -18 82 c-23 107 -39 136 -85 161 -58 31 -138 13 -175 -40 -26 -35 -27 -81
-7 -203 36 -216 -8 -421 -131 -609 -27 -42 -36 -53 -106 -126 -113 -119 -300
-214 -467 -237 -60 -8 -204 -8 -258 1 -344 56 -615 310 -696 652 -17 73 -23
237 -11 316 17 109 71 246 136 344 36 53 206 224 223 224 7 0 19 6 27 14 31
28 137 75 226 101 108 31 252 39 369 19 43 -8 92 -11 108 -9 64 12 108 67 108
137 0 36 -6 52 -32 82 -33 37 -46 42 -156 63 -51 10 -284 10 -355 0 -129 -18
-341 -105 -448 -183 -26 -19 -51 -34 -55 -34 -5 0 -231 222 -503 494 l-493
494 39 58 c151 224 198 490 138 788 -42 207 -200 442 -394 586 -104 77 -291
155 -423 176 -87 14 -275 11 -360 -6z m352 -272 c250 -54 465 -249 543 -493
25 -76 29 -102 33 -205 13 -344 -217 -648 -561 -740 -22 -6 -80 -13 -130 -16
-282 -19 -557 134 -692 386 -195 363 -51 819 318 1005 150 76 325 99 489 63z
m4547 -3033 c68 -29 106 -76 117 -149 13 -80 -36 -170 -111 -202 -68 -29 -168
-9 -215 43 -26 29 -50 94 -50 134 2 131 140 224 259 174z m399 -1939 c181 -31
345 -132 462 -281 150 -192 188 -479 95 -715 -46 -118 -161 -265 -258 -331
-303 -206 -695 -170 -948 85 -150 152 -227 351 -214 555 13 197 81 347 221
486 68 68 98 89 186 133 155 76 293 97 456 68z"/>
<path d="M6078 6990 c-250 -43 -468 -207 -582 -437 -113 -229 -104 -518 24
-736 l37 -65 -539 -538 c-297 -297 -547 -555 -557 -574 -59 -114 57 -234 174
-181 28 13 206 185 579 559 l539 540 56 -34 c196 -117 451 -140 666 -62 237
86 411 271 490 518 23 72 28 103 28 205 1 139 -3 177 -33 265 -94 279 -311
472 -601 536 -44 9 -233 12 -281 4z m279 -289 c262 -80 419 -355 352 -618 -44
-177 -188 -324 -364 -376 -64 -18 -188 -22 -251 -6 -183 44 -341 198 -389 380
-38 141 0 330 88 437 144 177 358 246 564 183z"/>
<path d="M4118 4305 c-103 -70 -59 -228 69 -248 50 -8 112 28 133 76 58 129
-85 252 -202 172z"/>
<path d="M3414 3900 c-103 -21 -197 -88 -258 -185 -77 -123 -85 -267 -21 -397
79 -161 265 -253 440 -218 207 41 341 214 330 427 -11 243 -246 421 -491 373z
m161 -286 c80 -52 76 -187 -7 -230 -125 -65 -248 60 -183 185 31 61 130 85
190 45z"/>
<path d="M1834 2016 c-64 -28 -94 -119 -60 -183 46 -89 177 -100 230 -19 76
117 -42 258 -170 202z"/>
<path d="M938 1869 c-211 -44 -385 -162 -506 -343 -138 -206 -166 -470 -76
-721 40 -113 138 -244 255 -340 38 -31 170 -104 209 -116 113 -33 154 -41 241
-44 500 -21 894 421 813 915 -40 247 -191 458 -409 572 -170 88 -349 114 -527
77z m225 -263 c191 -19 373 -178 431 -375 19 -64 21 -177 5 -253 -39 -186
-222 -362 -410 -394 -272 -46 -531 121 -598 387 -43 171 9 356 136 485 91 91
195 139 343 157 14 2 30 2 35 0 6 -1 32 -4 58 -7z"/>
</g>
</svg>
