<?xml version="1.0" encoding="utf-8"?><svg xmlns="http://www.w3.org/2000/svg" xmlns:xlink="http://www.w3.org/1999/xlink"><symbol viewBox="0 0 512.001 512.001" id="004-share" xmlns="http://www.w3.org/2000/svg"><path d="M437.997 364.004c-16.802 0-32.304 5.638-44.74 15.108l-72.646-72.646c9.176-11.766 14.898-25.752 16.728-40.341h43.247c4.281 13.882 17.229 24 32.496 24 18.748 0 33.999-15.252 33.999-33.999s-15.252-33.999-33.999-33.999c-15.268 0-28.216 10.118-32.496 23.999h-43.194a81.586 81.586 0 0 0-2.276-11.727c-1.45-5.33-6.948-8.475-12.275-7.023-5.329 1.45-8.473 6.946-7.023 12.275 5.833 21.437-.289 44.499-15.979 60.187-24.172 24.174-63.507 24.174-87.679 0-24.173-24.172-24.173-63.506 0-87.679 15.288-15.289 36.999-21.461 58.08-16.512 5.374 1.258 10.759-2.073 12.021-7.45 1.262-5.376-2.073-10.758-7.45-12.021-24.578-5.77-49.808-.094-69.294 15.198l-72.63-72.63c9.472-12.436 15.112-27.941 15.112-44.744-.001-40.805-33.197-74-74-74S.001 33.195.001 73.998s33.195 73.998 73.998 73.998c16.804 0 32.308-5.64 44.745-15.112l72.648 72.648c-23.109 29.543-23.109 71.383 0 100.928l-37.305 37.305c-3.905 3.905-3.905 10.237 0 14.143 1.953 1.953 4.512 2.929 7.071 2.929s5.119-.976 7.071-2.929l37.305-37.305c14.772 11.554 32.611 17.354 50.464 17.354s35.692-5.8 50.464-17.354l72.649 72.649c-9.475 12.437-15.116 27.943-15.116 44.749 0 40.803 33.195 73.998 73.998 73.998s73.998-33.195 73.998-73.998-33.191-73.997-73.994-73.997zm-24.915-121.879c7.72 0 14 6.28 14 14s-6.28 14-14 14-14-6.28-14-14 6.28-14 14-14zM74 127.998c-29.775 0-53.999-24.223-53.999-53.999S44.225 20.001 74 20.001c29.775 0 53.999 24.223 53.999 53.999S103.776 127.998 74 127.998zm363.997 364.003c-29.775 0-53.999-24.223-53.999-53.999 0-14.435 5.704-27.554 14.963-37.252.331-.257.655-.529.959-.833.304-.304.575-.627.832-.957 9.697-9.255 22.814-14.957 37.245-14.957 29.775 0 53.999 24.223 53.999 53.999s-24.224 53.999-53.999 53.999zM80.004 373.995c-31.98 0-57.999 26.018-57.999 57.999s26.018 57.999 57.999 57.999c31.98 0 57.999-26.018 57.999-57.999s-26.018-57.999-57.999-57.999zm0 95.998c-20.953 0-37.999-17.047-37.999-37.999s17.047-37.999 37.999-37.999c20.953 0 37.999 17.047 37.999 37.999s-17.046 37.999-37.999 37.999z"/><path d="M314.341 198.377l-.359-.362c-3.905-3.905-10.237-3.905-14.143 0-3.905 3.905-3.905 10.237 0 14.143l.259.261a9.968 9.968 0 0 0 7.122 2.979 9.97 9.97 0 0 0 7.021-2.879c3.933-3.877 3.978-10.209.1-14.142zM145.573 366.425a10.066 10.066 0 0 0-7.07-2.92c-2.64 0-5.21 1.06-7.08 2.92a10.066 10.066 0 0 0-2.92 7.07c0 2.64 1.06 5.21 2.92 7.08a10.09 10.09 0 0 0 7.08 2.92c2.63 0 5.21-1.06 7.07-2.92a10.1 10.1 0 0 0 2.93-7.08c0-2.63-1.07-5.21-2.93-7.07zM454.001.007c-31.98 0-57.999 26.018-57.999 57.999 0 12.384 3.914 23.863 10.552 33.295l-78.626 78.626c-3.905 3.905-3.905 10.237 0 14.143a9.966 9.966 0 0 0 7.071 2.929 9.966 9.966 0 0 0 7.071-2.929l78.625-78.625c9.433 6.643 20.918 10.56 33.306 10.56 31.98 0 57.999-26.018 57.999-57.999S485.982.007 454.001.007zm0 95.999c-20.953 0-37.999-17.047-37.999-37.999 0-20.953 17.047-37.999 37.999-37.999 20.953 0 37.999 17.047 37.999 37.999s-17.046 37.999-37.999 37.999zm-198 129.992c-16.542 0-29.999 13.458-29.999 29.999s13.458 29.999 29.999 29.999S286 272.539 286 255.998s-13.458-30-29.999-30zm0 39.999c-5.514 0-10-4.486-10-10s4.486-10 10-10 10 4.486 10 10-4.487 10-10 10z"/></symbol><symbol viewBox="0 0 341.594 341.594" id="006-connector" xmlns="http://www.w3.org/2000/svg"><path d="M311.049 164.758c-9.275 0-17.481 4.644-22.432 11.724l-20.171-3.495c.025-.758.058-1.515.058-2.279a66.729 66.729 0 0 0-4.973-25.316l34.163-20.612a27.205 27.205 0 0 0 16.538 5.584c15.087 0 27.361-12.274 27.361-27.361 0-15.086-12.274-27.359-27.361-27.359-15.086 0-27.359 12.273-27.359 27.359 0 1.603.146 3.171.412 4.699l-33.993 20.509c-10.314-12.574-25.097-21.345-41.899-23.867V62.373c12.537-4.194 21.604-16.04 21.604-29.971 0-17.427-14.178-31.606-31.604-31.606-17.425 0-31.602 14.178-31.602 31.606 0 13.931 9.064 25.776 21.602 29.971v41.971c-22.896 3.436-42.029 18.486-51.227 38.937l-62.597-19.227a39.05 39.05 0 0 0 .296-4.716c0-21.468-17.464-38.934-38.931-38.934C17.465 80.404 0 97.87 0 119.338c0 21.467 17.465 38.932 38.935 38.932 12.72 0 24.032-6.133 31.141-15.595l64.72 19.879a67.517 67.517 0 0 0-.513 8.153c0 18 7.138 34.355 18.714 46.419l-28.195 30.008a32.934 32.934 0 0 0-13.459-2.867c-18.279 0-33.148 14.87-33.148 33.148 0 18.276 14.869 33.145 33.148 33.145 18.276 0 33.146-14.869 33.146-33.145a32.948 32.948 0 0 0-4.711-17.012l29.128-31.002a66.682 66.682 0 0 0 32.488 8.414 66.687 66.687 0 0 0 31.19-7.715l29.064 44.193c-7.081 7.054-11.471 16.808-11.471 27.568 0 21.468 17.466 38.934 38.934 38.934s38.934-17.465 38.934-38.934c0-21.467-17.466-38.932-38.934-38.932-3.498 0-6.888.471-10.115 1.341l-30.275-46.033a67.229 67.229 0 0 0 16.08-25.587l19.168 3.321c1.879 13.267 13.305 23.505 27.082 23.505 15.087 0 27.361-12.274 27.361-27.361-.002-15.084-12.276-27.357-27.363-27.357zm-156.767 5.949c0-25.977 21.134-47.111 47.11-47.111 25.978 0 47.111 21.134 47.111 47.111 0 25.976-21.134 47.109-47.111 47.109-25.976 0-47.11-21.133-47.11-47.109z"/></symbol><symbol class="csvg-inline--fa cfa-behance-square cfa-w-14" viewBox="0 0 448 512" id="behance" xmlns="http://www.w3.org/2000/svg"><path d="M186.5 293c0 19.3-14 25.4-31.2 25.4h-45.1v-52.9h46c18.6.1 30.3 7.8 30.3 27.5zm-7.7-82.3c0-17.7-13.7-21.9-28.9-21.9h-39.6v44.8H153c15.1 0 25.8-6.6 25.8-22.9zm132.3 23.2c-18.3 0-30.5 11.4-31.7 29.7h62.2c-1.7-18.5-11.3-29.7-30.5-29.7zM448 80v352c0 26.5-21.5 48-48 48H48c-26.5 0-48-21.5-48-48V80c0-26.5 21.5-48 48-48h352c26.5 0 48 21.5 48 48zM271.7 185h77.8v-18.9h-77.8V185zm-43 110.3c0-24.1-11.4-44.9-35-51.6 17.2-8.2 26.2-17.7 26.2-37 0-38.2-28.5-47.5-61.4-47.5H68v192h93.1c34.9-.2 67.6-16.9 67.6-55.9zM380 280.5c0-41.1-24.1-75.4-67.6-75.4-42.4 0-71.1 31.8-71.1 73.6 0 43.3 27.3 73 71.1 73 33.2 0 54.7-14.9 65.1-46.8h-33.7c-3.7 11.9-18.6 18.1-30.2 18.1-22.4 0-34.1-13.1-34.1-35.3h100.2c.1-2.3.3-4.8.3-7.2z"/></symbol><symbol viewBox="0 0 384 384" id="close" xmlns="http://www.w3.org/2000/svg"><path d="M368 176c-8.832 0-16 7.168-16 16 0 88.224-71.776 160-160 160S32 280.224 32 192 103.776 32 192 32c42.952 0 83.272 16.784 113.536 47.264 6.224 6.264 16.36 6.304 22.624.08 6.272-6.224 6.304-16.36.08-22.632C291.928 20.144 243.536 0 192 0 86.128 0 0 86.128 0 192s86.128 192 192 192c105.864 0 192-86.128 192-192 0-8.832-7.168-16-16-16z"/><path d="M214.624 192l36.688-36.688c6.248-6.248 6.248-16.376 0-22.624s-16.376-6.248-22.624 0L192 169.376l-36.688-36.688c-6.24-6.248-16.384-6.248-22.624 0-6.248 6.248-6.248 16.376 0 22.624L169.376 192l-36.688 36.688c-6.248 6.248-6.248 16.376 0 22.624C135.808 254.44 139.904 256 144 256s8.192-1.56 11.312-4.688L192 214.624l36.688 36.688C231.816 254.44 235.904 256 240 256s8.184-1.56 11.312-4.688c6.248-6.248 6.248-16.376 0-22.624L214.624 192z"/></symbol><symbol viewBox="0 0 522.468 522.469" id="code" xmlns="http://www.w3.org/2000/svg"><path d="M325.762 70.513l-17.706-4.854c-2.279-.76-4.524-.521-6.707.715-2.19 1.237-3.669 3.094-4.429 5.568L190.426 440.53c-.76 2.475-.522 4.809.715 6.995 1.237 2.19 3.09 3.665 5.568 4.425l17.701 4.856c2.284.766 4.521.526 6.71-.712 2.19-1.243 3.666-3.094 4.425-5.564L332.042 81.936c.759-2.474.523-4.808-.716-6.999-1.238-2.19-3.089-3.665-5.564-4.424zm-159.595 71.952c0-2.474-.953-4.665-2.856-6.567l-14.277-14.276c-1.903-1.903-4.093-2.857-6.567-2.857s-4.665.955-6.567 2.857L2.856 254.666C.95 256.569 0 258.759 0 261.233s.953 4.664 2.856 6.566l133.043 133.044c1.902 1.906 4.089 2.854 6.567 2.854s4.665-.951 6.567-2.854l14.277-14.268c1.903-1.902 2.856-4.093 2.856-6.57 0-2.471-.953-4.661-2.856-6.563L51.107 261.233l112.204-112.201c1.906-1.902 2.856-4.093 2.856-6.567zm353.447 112.198L386.567 121.619c-1.902-1.902-4.093-2.857-6.563-2.857-2.478 0-4.661.955-6.57 2.857l-14.271 14.275c-1.902 1.903-2.851 4.09-2.851 6.567s.948 4.665 2.851 6.567l112.206 112.204-112.206 112.21c-1.902 1.902-2.851 4.093-2.851 6.563 0 2.478.948 4.668 2.851 6.57l14.271 14.268c1.909 1.906 4.093 2.854 6.57 2.854 2.471 0 4.661-.951 6.563-2.854L519.614 267.8c1.903-1.902 2.854-4.096 2.854-6.57 0-2.475-.951-4.665-2.854-6.567z"/></symbol><symbol viewBox="0 0 470.699 470.699" id="css" xmlns="http://www.w3.org/2000/svg"><path d="M426.981 0H43.701C34.52 0 27.632 7.769 28.442 16.949L63.45 409.254c.811 9.173 8.745 18.774 17.644 21.253L219.1 468.842c8.887 2.463 23.413 2.479 32.313.032l138.177-38.281c8.901-2.472 16.835-11.986 17.645-21.175l35.023-392.469C443.068 7.769 436.209 0 426.981 0zM360.51 141.611a.134.134 0 0 1-.112.117.134.134 0 0 1-.144-.077L252.13 185.96a3.485 3.485 0 0 0 1.321 6.708h84.103a15.772 15.772 0 0 1 15.682 17.443l-13.141 123.273a15.77 15.77 0 0 1-10.447 13.205l-89.269 31.41a15.761 15.761 0 0 1-10.397.025l-88.852-30.778a15.771 15.771 0 0 1-10.52-13.228l-5.957-55.828a10.388 10.388 0 0 1 10.331-11.492h24.725c5.313 0 9.769 4.007 10.331 9.289l3.655 34.316 61.521 21.385 61.803-21.58 7.559-71.17H129.835a10.39 10.39 0 0 1-10.327-9.25l-3.327-30.164a10.388 10.388 0 0 1 6.366-10.745l111.837-46.109a2.872 2.872 0 0 0-1.093-5.528H115.542a6.926 6.926 0 0 1-6.888-6.201l-3.406-32.421a6.927 6.927 0 0 1 6.887-7.648h246.379a6.928 6.928 0 0 1 6.881 7.707l-4.885 43.032z"/></symbol><symbol class="gsvg-inline--fa gfa-facebook gfa-w-14" viewBox="0 0 448 512" id="facebook" xmlns="http://www.w3.org/2000/svg"><path d="M448 56.7v398.5c0 13.7-11.1 24.7-24.7 24.7H309.1V306.5h58.2l8.7-67.6h-67v-43.2c0-19.6 5.4-32.9 33.5-32.9h35.8v-60.5c-6.2-.8-27.4-2.7-52.2-2.7-51.6 0-87 31.5-87 89.4v49.9h-58.4v67.6h58.4V480H24.7C11.1 480 0 468.9 0 455.3V56.7C0 43.1 11.1 32 24.7 32h398.5c13.7 0 24.8 11.1 24.8 24.7z"/></symbol><symbol class="hsvg-inline--fa hfa-github-square hfa-w-14" viewBox="0 0 448 512" id="github" xmlns="http://www.w3.org/2000/svg"><path d="M400 32H48C21.5 32 0 53.5 0 80v352c0 26.5 21.5 48 48 48h352c26.5 0 48-21.5 48-48V80c0-26.5-21.5-48-48-48zM277.3 415.7c-8.4 1.5-11.5-3.7-11.5-8 0-5.4.2-33 .2-55.3 0-15.6-5.2-25.5-11.3-30.7 37-4.1 76-9.2 76-73.1 0-18.2-6.5-27.3-17.1-39 1.7-4.3 7.4-22-1.7-45-13.9-4.3-45.7 17.9-45.7 17.9-13.2-3.7-27.5-5.6-41.6-5.6-14.1 0-28.4 1.9-41.6 5.6 0 0-31.8-22.2-45.7-17.9-9.1 22.9-3.5 40.6-1.7 45-10.6 11.7-15.6 20.8-15.6 39 0 63.6 37.3 69 74.3 73.1-4.8 4.3-9.1 11.7-10.6 22.3-9.5 4.3-33.8 11.7-48.3-13.9-9.1-15.8-25.5-17.1-25.5-17.1-16.2-.2-1.1 10.2-1.1 10.2 10.8 5 18.4 24.2 18.4 24.2 9.7 29.7 56.1 19.7 56.1 19.7 0 13.9.2 36.5.2 40.6 0 4.3-3 9.5-11.5 8-66-22.1-112.2-84.9-112.2-158.3 0-91.8 70.2-161.5 162-161.5S388 165.6 388 257.4c.1 73.4-44.7 136.3-110.7 158.3zm-98.1-61.1c-1.9.4-3.7-.4-3.9-1.7-.2-1.5 1.1-2.8 3-3.2 1.9-.2 3.7.6 3.9 1.9.3 1.3-1 2.6-3 3zm-9.5-.9c0 1.3-1.5 2.4-3.5 2.4-2.2.2-3.7-.9-3.7-2.4 0-1.3 1.5-2.4 3.5-2.4 1.9-.2 3.7.9 3.7 2.4zm-13.7-1.1c-.4 1.3-2.4 1.9-4.1 1.3-1.9-.4-3.2-1.9-2.8-3.2.4-1.3 2.4-1.9 4.1-1.5 2 .6 3.3 2.1 2.8 3.4zm-12.3-5.4c-.9 1.1-2.8.9-4.3-.6-1.5-1.3-1.9-3.2-.9-4.1.9-1.1 2.8-.9 4.3.6 1.3 1.3 1.8 3.3.9 4.1zm-9.1-9.1c-.9.6-2.6 0-3.7-1.5s-1.1-3.2 0-3.9c1.1-.9 2.8-.2 3.7 1.3 1.1 1.5 1.1 3.3 0 4.1zm-6.5-9.7c-.9.9-2.4.4-3.5-.6-1.1-1.3-1.3-2.8-.4-3.5.9-.9 2.4-.4 3.5.6 1.1 1.3 1.3 2.8.4 3.5zm-6.7-7.4c-.4.9-1.7 1.1-2.8.4-1.3-.6-1.9-1.7-1.5-2.6.4-.6 1.5-.9 2.8-.4 1.3.7 1.9 1.8 1.5 2.6z"/></symbol><symbol viewBox="0 0 256 566" preserveAspectRatio="xMinYMin meet" id="gulp" xmlns="http://www.w3.org/2000/svg"><path d="M197.28 548.749l5.427-90.43 14.985-25.58s-34.106 13.952-91.205 13.952c-57.1 0-90.689-13.694-90.689-13.694l16.794 27.904 5.941 87.848c0 9.418 31.059 17.052 69.374 17.052 38.313 0 69.373-7.634 69.373-17.052m-17.119-422.295l11.391-45.025 63.081-66.376L238.007.892l-66.784 70.707-13.226 53.793a886.14 886.14 0 0 0-29.873-.497c-70.336 0-127.355 8.016-127.355 17.902 0 9.887 57.019 17.902 127.355 17.902 70.335 0 127.353-8.015 127.353-17.902 0-7.28-30.924-13.546-75.316-16.343"/><path d="M173.535 151.669s-2.467.553-9.724.584c-7.259.03-12.413-.047-14.466-1.917-.552-.502-.854-1.499-.851-2.174.006-1.285.918-2.042 2.08-2.516l1.099 1.724c-.478.165-.751.36-.752.568-.004.976 7.422 1.644 13.102 1.572 5.681-.07 12.545-.538 12.551-1.5 0-.291-.519-.565-1.422-.781l1.094-1.712c1.472.457 2.757 1.34 2.754 2.868-.014 2.598-3.32 2.993-5.465 3.284M254.509 15.184c1.586-1.832-.821-6.518-5.376-10.465C244.576.774 239.596-.94 238.007.892c-1.587 1.832.821 6.518 5.378 10.463 4.555 3.946 9.537 5.662 11.124 3.829m-60.263 312.681c-1.495-14.384 31.462-35.216 23.004-35.883-18.208 1.041-27.27 21.338-36.431 42.596-3.357 7.791-14.844 41.013-22.378 36.923-7.532-4.088 9.765-31.407 14.613-47.631-5.594 4.102-26.109 20.041-31.396 5.114-8.5 7.219-26.663 11.13-24.614-7.833-4.522 8.01-14.671 19.193-26.853 14.546-15.998-6.101 9.27-57.062 15.553-54.491 6.284 2.57-1.268 14.179-3.246 18.687-4.35 9.921-9.375 22.393-6.018 24.946 5.751 4.374 21.401-16.547 21.749-17.007 2.927-3.867 11.266-29.166 17.987-26.261 6.721 2.905-16.764 36.308-7.983 42.937 1.771 1.338 9.017-.825 13.425-5.594 2.852-3.085 1.871-9.918 11.378-32.59 9.507-22.671 17.98-50.905 24.5-48.754 6.52 2.15 1.146 16.641-1.193 22.043-10.976 25.354-29.956 67.241-21.005 64.07 8.951-3.17 13.612-3.356 22.377-13.613 8.765-10.257 8.361-27.152 14.203-26.793 5.844.36 4.863 5.777 3.446 9.902 5.75-6.58 27.256-20.438 32.448-6.713 6.15 16.249-30.769 39.72-21.564 38.523 8.975-1.167 23.515-10.376 29.723-18.749l17.088-153.626s-17.195 14.23-126.589 14.23c-109.395 0-124.811-13.934-124.811-13.934l14.548 140.224c7.722-21.947 26.059-66.339 54.963-64.849 13.148.678 30.7 25.995 15.665 26.853-6.364.362-7.01-12.637-14.546-14.546-5.438-1.378-13.009 3.043-17.902 7.833-9.758 9.55-30.745 47.229-27.972 66.014 3.533 23.949 33.048-8.322 38.042-17.903 3.517-6.749 5.893-26.745 13.585-24.647 7.693 2.098-.671 22.734-6.247 40.979-6.264 20.487-9.557 42.098-17.408 39.612-7.852-2.484 4.938-28.932 4.475-33.566-7.38 6.809-20.976 24.047-38.37 15.515l9.035 87.078s24.013 18.973 96.35 18.973c72.337 0 97.239-18.677 97.239-18.677l11.219-100.857c-9.179 8.938-38.229 24.81-40.089 6.919"/></symbol><symbol viewBox="0 0 456.804 456.804" id="html" xmlns="http://www.w3.org/2000/svg"><path d="M27.405 0l36.542 410.56 163.882 46.244 165.022-46.244L429.398 0H27.405zm322.62 133.904h-192.43l4.283 51.676h183.866l-14.273 155.315-102.499 28.26v.287h-1.143l-103.356-28.547-6.28-79.367h49.965l3.711 39.971 55.959 15.126 56.245-15.126 6.283-65.097H115.625l-13.418-152.46h252.392l-4.574 49.962z"/></symbol><symbol viewBox="0 0 50.491 50.491" id="jquery" xmlns="http://www.w3.org/2000/svg"><path d="M40.996 28.721c-2.448-2.371-6.724.924-7.368-3.854-.4-2.973 5.336-1.877 7.082-3.623 2.245-2.244 1.127-3.577-1.6-4.548-5.521-1.967-11.381 2.355-12.301 7.695-.094.544-.094 1.441-.008 1.986.529 3.33 2.762 5.819 5.619 6.904.516.195.934.32.909.343-.024.021.072.074.216.113.145.037.28.048.303.022.023-.022.482.05 1.033.098a9.5 9.5 0 0 0 4.497-.717c2.278-.949 3.783-2.322 1.618-4.419zm-12.293-3.057c-.06-.438-.056-1.245.028-1.791.012-.068.022-.136.035-.203.097-.544.533-1.295.918-1.69l3.66-3.75c.387-.395.483-.669.221-.593-.262.076-.793.461-1.188.847-1.165 1.136-.303.349-2.175 2.161-.396.384-.538.283-.249-.188 1.433-2.328 3.992-3.771 7.565-3.029.186.039.359.087.521.143.283.096.39.166.255.119-.135-.047-.48.144-.771.416-.289.272-.185.273.265.057.449-.218 1.253-.156 1.618.259 1.138 1.299.259 3.239-2.075 3.012a7.043 7.043 0 0 0-2.448.229c-.533.145-.814.07-.635-.242s.031-.236-.365.147c-1.519 1.471-.822.699-4.337 4.182-.393.387-.784.352-.843-.086zm.471 2.065c-.136-.397.11-1.033.514-1.41.484-.453.965-.904 1.443-1.354.403-.377.719-.638.706-.581-.008.034-.016.068-.02.104-.04.299-.056.58-.048.848.015.47-.219 1.147-.625 1.524l-.963.896c-.404.376-.872.37-1.007-.027zm10.248 3.48c-1.195 1.176-2.429 1.759-3.701 1.765-.552.002-.765-.344-.482-.632.281-.287.46-.563.4-.617-.061-.053-.387.153-.729.465-.343.312-.806.508-1.026.418a4.667 4.667 0 0 1-.392-.178 8.297 8.297 0 0 1-.767-.397c-.412-.24-.407-.794-.014-1.182.196-.19.393-.382.59-.569.399-.383.707-.728.685-.774-.022-.048-.36.227-.755.612l-.649.635c-.396.386-1.088.447-1.489.066a6.73 6.73 0 0 1-.406-.422c-.365-.413-.277-1.099.127-1.474.303-.279.604-.56.904-.839.405-.376 1.004-.313 1.445.018.305.229.659.43 1.066.602 1.627.688 3.08-.627 4.758.483.211.142.42.36.609.595.297.365.219 1.038-.174 1.425zM34.768 8.357c-.002.008.002.015 0 .023.207-.219.226-.246 0-.023z"/><path d="M38.872 37.873c-2.968-1.564-6.382-.796-9.459-2.819-2.991-1.967-4.53-5.393-5.086-8.799-.718-4.393 1.659-8.63 4.945-11.308 4.688-3.82 5.664-.528 8.48-2.428 2.764-1.863 1.956-5.509-1.324-5.63-10.439-.384-18.72 8.453-19.108 18.495.348 9.013 8.75 19.462 18.674 18.171.547-.071.998-.167 1.013-.167.014 0 .184-.04.379-.085.118-.026.235-.056.354-.087 1.961-.526 3.405-4.146 1.132-5.343zM23.524 13.591a19.654 19.654 0 0 1 2.178-2.202c.063-.055.147-.118.247-.188.141-.099-.058.146-.447.539l-1.9 1.92c-.387.393-.434.353-.078-.069zm-3.595 6.856a17.601 17.601 0 0 1 1.111-2.991c.238-.498.779-1.2 1.177-1.583.364-.351.728-.701 1.092-1.056 1.364-1.381 2.734-2.752 4.102-4.127.391-.392 1.107-.907 1.609-1.135 2.152-.969 4.828-1.876 6.565-1.708.55.053.792.43.585.643-.207.212-.1.29.244.19.344-.102.885.148.954.63a2.99 2.99 0 0 1-.017.875c-.326 2.175-2.228 1.747-3.896 2.02-1.973.322-3.878 1.174-5.54 2.39-.446.326-.524.255-.173-.171a17.82 17.82 0 0 1 4.434-3.868c.469-.289 1.135-.768 1.471-1.096.244-.238.449-.438.611-.591.241-.242.4-.401.512-.511.05-.218-.116-.361-.496-.327l-.039.004c-.551.051-1.213.32-1.482.569l-.488.45c-3.84 3.768-7.802 7.664-11.858 11.663-.395.387-.623.263-.478-.27zm-.643 4.904a11.08 11.08 0 0 1-.033-.483c.005-.138.018-.273.031-.408.022-.225.351-.729.736-1.125.983-1.013 1.94-1.997 2.864-2.946.386-.396.493-.318.288.194-.123.306-.233.616-.331.93-.164.527-.569 1.288-.954 1.685l-1.863 1.922c-.384.395-.715.499-.738.231zm.619 4.051l-.02-.078c-.136-.535.096-1.291.487-1.682l1.043-1.035.352-.385c.194-.213.03-.074-.367.311l-1.034.998c-.397.384-.771.434-.822.111-.051-.321.233-.897.627-1.286l1.443-1.423c.393-.389.695-.444.694-.125 0 .191.004.383.015.576.028.523.084 1.029.161 1.521.085.546-.135 1.3-.527 1.688l-1.069 1.062c-.393.393-.846.282-.983-.253zm1.793 4.462a16.782 16.782 0 0 1-.736-1.446c-.227-.504-.071-1.245.313-1.642l.99-1.02c.385-.396.823-.286 1.021.23.221.575.479 1.132.779 1.667.269.481.195 1.157-.208 1.534l-.904.844c-.404.378-.981.313-1.255-.167zm12.156 8.256c-.545-.081-.883-.28-.756-.415.125-.135-.172-.445-.651-.723l-.103-.06c-.477-.279-1.061-.323-1.326-.066-.267.258-.903.315-1.405.087-.347-.158-.685-.33-1.019-.515-.482-.268-.543-.827-.154-1.219a.17.17 0 0 0 .019-.019c.39-.392.533-.871.329-1.083-.204-.211-.693-.085-1.102.287-.066.062-.133.121-.2.184-.408.372-1.102.414-1.538.075a27.598 27.598 0 0 1-1.087-.894 6.535 6.535 0 0 1-.382-.361c-.204-.205-.053-.694.334-1.089l.741-.752c.388-.394.674-.759.639-.816-.035-.059-.391.198-.796.574l-.822.762c-.405.375-.95.453-1.199.159-.249-.296-.11-.847.297-1.22l.917-.843c.407-.373 1.018-.327 1.394.077.489.526 1.03 1.032 1.625 1.517 1.411 1.15 3.194 1.768 4.917 2.241 1.688.465 4.266-.217 5.185 1.887 1.088 2.495-1.617 2.553-3.857 2.225z"/><path d="M33.338 9.913c.045-.021.393-.36.778-.757l.457-.47a.769.769 0 0 0 .194-.306c-.168.177-.445.467-.816.852-.382.399-.658.701-.613.681z"/><path d="M31.869 44.079c-9.681-1.028-16.166-10.011-16.491-19.212-.173-4.898 2.073-9.557 5.223-13.154 2.124-2.425 5.1-4.049 8.121-5.033 2.133-.694 4.363-.185 6.428-.737 1.719-.461 1.99-1.874 2.15-3.464.293-2.899-2.334-2.482-4.267-2.428C19.377.432 8.819 12.073 8.446 25.385c.221 7.884 3.617 14.703 9.737 19.655 4.118 3.332 11.858 6.545 17.278 5.093a.778.778 0 0 0 .103-.035c.056-.021.089-.025.072-.01-.016.016-.01.015.012-.004s.49-.155.912-.511c.729-.613.922-1.573.803-2.705-.366-3.454-2.761-2.499-5.494-2.789zM12.647 14.863c.342-.75.723-1.482 1.141-2.196.279-.477.843-1.166 1.239-1.551l4.453-4.335 2.358-2.212c.402-.378 1.121-.901 1.616-1.146a22.663 22.663 0 0 1 1.593-.711c.512-.205.616-.04.22.345C21.08 7.128 17.27 10.88 12.97 15.08c-.397.388-.552.285-.323-.217zm.293.284c2.358-2.295 4.153-4.028 2.952-2.793l-2.991 2.891c-.397.385-.71.675-.698.648.012-.026.341-.36.737-.746zm-2.131 5.616c.099-.545.214-1.085.347-1.617.133-.536.575-1.285.962-1.68a1869.27 1869.27 0 0 1 14.805-14.9c.391-.39.342-.61-.105-.474-.447.137-.382.109.146-.052a27.188 27.188 0 0 1 4.155-.914C33.008.859 35.578.795 35.28 3.75c-.183 1.792-2.636 1.346-3.864 1.477-6.795.722-12.309 4.96-15.364 10.635-.262.486-.769 1.208-1.157 1.601a3987.567 3987.567 0 0 0-3.541 3.577c-.392.391-.645.266-.545-.277zm-.413 4.548a16.326 16.326 0 0 1-.019-.442c.013-.475.04-.944.078-1.41.045-.551.423-1.305.823-1.685.98-.934 1.958-1.872 2.936-2.818.397-.384.553-.279.378.244-.25.742-.457 1.501-.626 2.271-.118.54-.512 1.296-.906 1.684-.64.631-1.283 1.266-1.928 1.9-.392.385-.723.501-.736.256zm.339 3.319c-.068-.425.199-1.091.583-1.487l1.468-1.513c.385-.396.69-.611.677-.482a4.595 4.595 0 0 0-.017.236c-.008.228-.01.45-.009.674.003.371-.295.992-.679 1.39l-1.194 1.231c-.384.397-.762.376-.829-.049zm.494 2.399c-.075-.297.188-.853.582-1.239l1.035-1.021c.393-.389.741-.429.79-.093.049.336-.222.917-.619 1.301l-.926.894c-.397.382-.787.454-.862.158zm.466 1.628l-.003-.013c-.168-.525.03-1.272.421-1.663.485-.482.97-.966 1.458-1.447l.088-.098c.049-.053.168.346.3.882l.024.096c.135.536-.043 1.277-.435 1.668-.275.272-.548.546-.82.814-.393.391-.864.286-1.033-.239zm1.89 4.387c-.258-.465-.5-.939-.726-1.42-.234-.5-.095-1.236.29-1.633l.796-.818c.385-.396.857-.298 1.087.204.244.534.513 1.055.807 1.56.277.479.197 1.156-.207 1.532l-.81.757c-.404.376-.968.301-1.237-.182zm1.582 2.454c-.233-.312-.081-.874.327-1.247.283-.259.566-.52.849-.777.407-.373.924-.428 1.165-.13.24.298.117.836-.288 1.211l-.888.822c-.406.375-.933.432-1.165.121zm19.261 9.764a17.796 17.796 0 0 1-2.799-.159c-.547-.071-.945-.195-.895-.248.051-.052.009-.125-.094-.166-.102-.041-.238-.018-.307.053-.066.067-.562.04-1.1-.087a31.428 31.428 0 0 1-.842-.213c-.533-.142-.82-.417-.646-.596s-.027-.5-.439-.731c-.412-.232-.938-.232-1.185.016-.247.249-.866.29-1.369.062a38.361 38.361 0 0 1-.407-.188c-.498-.239-.636-.726-.321-1.062.315-.336.213-.879-.214-1.229l-.089-.073c-.425-.352-1.079-.342-1.477.041l-.007.007c-.398.385-1.093.447-1.541.124a25.953 25.953 0 0 1-.781-.583c-.437-.337-.466-.939-.076-1.332l.33-.331c.39-.392.545-.893.352-1.124-.193-.231-.675-.121-1.082.251-.163.148-.325.299-.488.446-.407.373-.786.634-.845.583l-.107-.094a20.338 20.338 0 0 1-1.495-1.5c-.37-.41-.337-1.076.051-1.469l.862-.874c.388-.394 1-.376 1.389.017 3.824 3.865 9.255 6.244 14.837 6.441.942.028 3.373 3.95.785 4.018z"/><path d="M35.667 18.028c.408-.373.64-.683.519-.692-.123-.011-.537.308-.924.701-.963.981-1.931 1.957-2.894 2.939-.388.394-.369.412.038.038 1.087-.997 2.174-1.992 3.261-2.986zm2.866 15.51c-.054-.021-.147.013-.208.075-.062.062-.018.084.098.039.113-.046.162-.095.11-.114zM29.537 3.145c.413-.179 1.067-.628 1.461-1.016l.291-.287c.394-.388.498-.687.233-.662-.264.023-.795.366-1.185.757l-.835.839c-.389.391-.377.548.035.369z"/></symbol><symbol viewBox="0 0 312.553 312.553" id="js" xmlns="http://www.w3.org/2000/svg"><path d="M302.553 0H10C4.477 0 0 4.478 0 10v292.553c0 5.522 4.477 10 10 10h292.553c5.523 0 10-4.478 10-10V10c0-5.522-4.477-10-10-10zM143.625 173.732c0 18.615-10.434 30.179-27.232 30.179-10.55 0-19.978-5.292-26.547-14.901a9.325 9.325 0 0 1 15.395-10.523c3.074 4.498 6.826 6.778 11.152 6.778 3.419 0 8.586 0 8.586-11.532v-47.467H99.504a9.323 9.323 0 0 1-9.323-9.323 9.323 9.323 0 0 1 9.323-9.323h34.798a9.323 9.323 0 0 1 9.323 9.323v56.789zm45.816 31.868c-12.499 0-25.251-5.27-33.279-13.753a9.324 9.324 0 0 1 13.543-12.819c4.486 4.74 12.417 7.925 19.736 7.925 7.493 0 16.244-2.188 16.244-8.351.048-5.81-3.045-7.986-17.415-12.339-12.677-3.839-31.835-9.642-31.835-31.725 0-16.5 14.306-27.586 35.599-27.586 9.479 0 19.815 2.874 26.975 7.502 4.324 2.795 5.564 8.567 2.769 12.892-2.796 4.324-8.568 5.564-12.892 2.769-4.112-2.658-11.042-4.516-16.852-4.516-7.82 0-16.952 2.342-16.952 8.939 0 7.165 4.189 9.516 18.594 13.879 12.277 3.718 30.83 9.337 30.656 30.262-.001 16.071-14.022 26.921-34.891 26.921z"/></symbol><symbol class="msvg-inline--fa mfa-linkedin mfa-w-14" viewBox="0 0 448 512" id="linkedin" xmlns="http://www.w3.org/2000/svg"><path d="M416 32H31.9C14.3 32 0 46.5 0 64.3v383.4C0 465.5 14.3 480 31.9 480H416c17.6 0 32-14.5 32-32.3V64.3c0-17.8-14.4-32.3-32-32.3zM135.4 416H69V202.2h66.5V416zm-33.2-243c-21.3 0-38.5-17.3-38.5-38.5S80.9 96 102.2 96c21.2 0 38.5 17.3 38.5 38.5 0 21.3-17.2 38.5-38.5 38.5zm282.1 243h-66.4V312c0-24.8-.5-56.7-34.5-56.7-34.6 0-39.9 27-39.9 54.9V416h-66.4V202.2h63.7v29.2h.9c8.9-16.8 30.6-34.5 62.9-34.5 67.2 0 79.7 44.3 79.7 101.9V416z"/></symbol><symbol viewBox="0 0 490.667 490.667" id="password" xmlns="http://www.w3.org/2000/svg"><path d="M96 234.637H71.808l12.096-20.949c2.912-5.121 1.12-11.633-4.001-14.545-5.073-2.884-11.522-1.156-14.474 3.878L53.333 223.97l-12.096-20.949c-2.979-5.082-9.515-6.787-14.597-3.807-5.034 2.951-6.762 9.401-3.878 14.474l12.096 20.949H10.667C4.776 234.637 0 239.413 0 245.304s4.776 10.667 10.667 10.667h24.192L22.763 276.92c-2.945 5.102-1.198 11.625 3.904 14.571A10.517 10.517 0 0 0 32 292.92a10.669 10.669 0 0 0 9.259-5.333l12.075-20.949 12.096 20.949a10.665 10.665 0 0 0 9.259 5.333 10.515 10.515 0 0 0 5.333-1.429c5.102-2.946 6.849-9.469 3.904-14.571l-12.118-20.95H96c5.891 0 10.667-4.776 10.667-10.667 0-5.89-4.776-10.666-10.667-10.666zm128 0h-24.192l12.096-20.949c2.912-5.121 1.121-11.633-4-14.545-5.073-2.885-11.523-1.157-14.474 3.878l-12.096 20.949-12.096-20.949c-2.979-5.082-9.514-6.787-14.596-3.808-5.035 2.951-6.763 9.401-3.878 14.474l12.096 20.949h-24.192c-5.891 0-10.667 4.776-10.667 10.667s4.776 10.667 10.667 10.667h24.192l-12.096 20.949c-2.945 5.102-1.198 11.625 3.904 14.571a10.517 10.517 0 0 0 5.333 1.429 10.669 10.669 0 0 0 9.259-5.333l12.075-20.949 12.096 20.949a10.665 10.665 0 0 0 9.259 5.333 10.515 10.515 0 0 0 5.333-1.429c5.102-2.946 6.849-9.469 3.904-14.571L199.81 255.97H224c5.891 0 10.667-4.776 10.667-10.667 0-5.89-4.776-10.666-10.667-10.666zm128 0h-24.192l12.096-20.949c2.912-5.121 1.121-11.633-4-14.545-5.073-2.885-11.523-1.157-14.474 3.878l-12.096 20.949-12.096-20.949c-2.979-5.082-9.514-6.787-14.596-3.808-5.035 2.951-6.763 9.401-3.878 14.474l12.096 20.949h-24.192c-5.891 0-10.667 4.776-10.667 10.667s4.776 10.667 10.667 10.667h24.192l-12.096 20.949c-2.945 5.102-1.198 11.625 3.904 14.571a10.517 10.517 0 0 0 5.333 1.429 10.669 10.669 0 0 0 9.259-5.333l12.075-20.949 12.096 20.949a10.665 10.665 0 0 0 9.259 5.333 10.515 10.515 0 0 0 5.333-1.429c5.102-2.946 6.849-9.469 3.904-14.571l-12.096-20.949H352c5.891 0 10.667-4.776 10.667-10.667 0-5.89-4.776-10.666-10.667-10.666zm128 0h-24.192l12.096-20.949c2.911-5.121 1.119-11.633-4.002-14.544-5.073-2.883-11.521-1.156-14.473 3.878l-12.096 20.949-12.096-20.949c-2.98-5.082-9.515-6.786-14.597-3.806-5.033 2.952-6.761 9.4-3.878 14.473l12.096 20.949h-24.192c-5.891 0-10.667 4.776-10.667 10.667s4.776 10.667 10.667 10.667h24.192l-12.096 20.949c-2.945 5.102-1.198 11.625 3.904 14.571a10.517 10.517 0 0 0 5.333 1.429 10.669 10.669 0 0 0 9.259-5.333l12.075-20.949 12.096 20.949a10.665 10.665 0 0 0 9.259 5.333 10.515 10.515 0 0 0 5.333-1.429c5.102-2.946 6.849-9.469 3.904-14.571l-12.096-20.949H480c5.891 0 10.667-4.776 10.667-10.667 0-5.892-4.776-10.668-10.667-10.668z"/><path d="M96 255.97H10.667C4.776 255.97 0 251.195 0 245.304s4.776-10.667 10.667-10.667H96c5.891 0 10.667 4.776 10.667 10.667S101.891 255.97 96 255.97z"/><path d="M32 292.92c-5.891 0-10.667-4.776-10.666-10.667 0-1.872.493-3.712 1.429-5.333L65.429 203c3.16-4.972 9.753-6.44 14.724-3.279a10.666 10.666 0 0 1 3.729 13.946l-42.667 73.92A10.666 10.666 0 0 1 32 292.92z"/><path d="M74.667 292.92a10.665 10.665 0 0 1-9.237-5.333l-42.667-73.92c-2.731-5.22-.713-11.665 4.507-14.396A10.667 10.667 0 0 1 41.216 203l42.667 73.92c2.946 5.102 1.198 11.625-3.904 14.571a10.667 10.667 0 0 1-5.333 1.429h.021zM224 255.97h-85.333c-5.891 0-10.667-4.776-10.667-10.667s4.776-10.667 10.667-10.667H224c5.891 0 10.667 4.776 10.667 10.667 0 5.892-4.776 10.667-10.667 10.667z"/><path d="M160 292.92c-5.891 0-10.667-4.776-10.666-10.667 0-1.872.493-3.712 1.429-5.333L193.429 203c3.16-4.972 9.753-6.44 14.724-3.279a10.667 10.667 0 0 1 3.729 13.946l-42.667 73.92A10.666 10.666 0 0 1 160 292.92z"/><path d="M202.667 292.92a10.665 10.665 0 0 1-9.237-5.333l-42.667-73.92c-2.731-5.22-.713-11.665 4.507-14.396A10.667 10.667 0 0 1 169.216 203l42.667 73.92c2.946 5.102 1.198 11.625-3.904 14.571a10.667 10.667 0 0 1-5.333 1.429h.021zM352 255.97h-85.333c-5.891 0-10.667-4.776-10.667-10.667s4.776-10.667 10.667-10.667H352c5.891 0 10.667 4.776 10.667 10.667 0 5.892-4.776 10.667-10.667 10.667z"/><path d="M288 292.92c-5.891 0-10.667-4.776-10.666-10.667 0-1.872.493-3.712 1.429-5.333L321.429 203c3.16-4.972 9.753-6.44 14.724-3.28a10.666 10.666 0 0 1 3.729 13.946l-42.667 73.92A10.665 10.665 0 0 1 288 292.92z"/><path d="M330.667 292.92a10.665 10.665 0 0 1-9.237-5.333l-42.667-73.92c-2.731-5.22-.713-11.665 4.507-14.396A10.667 10.667 0 0 1 297.216 203l42.667 73.92c2.946 5.102 1.198 11.625-3.904 14.571a10.667 10.667 0 0 1-5.333 1.429h.021zM480 255.97h-85.333c-5.891 0-10.667-4.776-10.667-10.667s4.776-10.667 10.667-10.667H480c5.891 0 10.667 4.776 10.667 10.667 0 5.892-4.776 10.667-10.667 10.667z"/><path d="M416 292.92c-5.891 0-10.667-4.776-10.666-10.667 0-1.872.493-3.712 1.429-5.333L449.429 203c3.16-4.972 9.753-6.44 14.724-3.279a10.667 10.667 0 0 1 3.729 13.946l-42.667 73.92A10.666 10.666 0 0 1 416 292.92z"/><path d="M458.667 292.92a10.665 10.665 0 0 1-9.237-5.333l-42.667-73.92c-2.731-5.22-.713-11.665 4.507-14.396A10.667 10.667 0 0 1 425.216 203l42.667 73.92c2.946 5.102 1.198 11.625-3.904 14.571a10.667 10.667 0 0 1-5.333 1.429h.021z"/></symbol><symbol viewBox="0 0 455.376 455.376" id="pug" xmlns="http://www.w3.org/2000/svg"><path d="M454.885 109.029l-8.27-21.709a7.496 7.496 0 0 0-4.445-4.378l-8.717-3.17-9.27-16.903a50.923 50.923 0 0 0-34.353-25.411 50.932 50.932 0 0 0-41.627 9.646l-28.216 21.899-83.695 35.87a44.046 44.046 0 0 1-16.945 3.576l-70.874.786c.475-8.45-2.342-16.866-8.174-23.459-10.207-11.538-26.205-15.722-40.753-10.662a87.367 87.367 0 0 0-47.249 39.326 610.724 610.724 0 0 0-34.429 70.813L6.36 213.43a37.877 37.877 0 0 0-1.766 23.344l11.328 46.929c4.446 18.42-.728 37.584-13.838 51.265a7.498 7.498 0 0 0-1.815 7.18l19.642 71.328a7.5 7.5 0 0 0 7.23 5.509h42.384a7.5 7.5 0 0 0 6.894-10.454l-9.304-21.708a7.5 7.5 0 0 0-6.894-4.546H50.24l-6.046-19.479c7.732-5.642 23.885-18.358 40.023-36.83 14.701-16.826 25.807-34.421 33.117-52.287l137.3 45.159-8.839 26.134a38.708 38.708 0 0 0 .309 25.597l15.89 43.488a7.502 7.502 0 0 0 7.045 4.926h50.653a7.5 7.5 0 0 0 6.644-10.98l-11.371-21.708a7.5 7.5 0 0 0-6.644-4.02h-6.595l-3.759-8.056 31.104-68.788 46.339-41.828a58.89 58.89 0 0 0 17.164-27.498l24.411-85.048c18.717-4.31 33.43-18.591 38.167-37.54a7.513 7.513 0 0 0-.267-4.49zm-76.729 122.94a43.908 43.908 0 0 1-12.797 20.502l-20.85 18.82 5.793-12.811a7.501 7.501 0 0 0-13.668-6.18l-53.755 118.88a7.497 7.497 0 0 0 .038 6.262l7.236 15.506a7.497 7.497 0 0 0 6.796 4.328h6.833l3.514 6.708h-33.014l-14.089-38.562a23.66 23.66 0 0 1-.189-15.644l20.273-59.941a7.5 7.5 0 1 0-14.209-4.806l-6.628 19.596-137.133-45.104c3.874-13.147 5.697-26.369 5.37-39.47a7.489 7.489 0 0 0-7.686-7.31 7.501 7.501 0 0 0-7.311 7.685c1.005 40.171-20.927 74.037-39.502 95.374-20.532 23.585-41.669 37.583-41.876 37.719a7.5 7.5 0 0 0-3.055 8.498L37.552 392a7.5 7.5 0 0 0 7.163 5.277h10.562l2.875 6.708H32.855l-17.034-61.861c14.507-17.103 19.993-39.94 14.684-61.941l-11.328-46.929a22.96 22.96 0 0 1 1.07-14.152l11.509-28.178a595.354 595.354 0 0 1 33.579-69.067 72.375 72.375 0 0 1 39.14-32.576 22.748 22.748 0 0 1 24.591 6.433c4.468 5.051 5.688 12.078 3.183 18.338a17.745 17.745 0 0 1-17.19 11.134l-22.069-.901a.542.542 0 0 1-.465-.256.544.544 0 0 1-.076-.525.588.588 0 0 1 .528-.406c20.213-1.378 31.8-6.984 34.438-16.662 1.09-3.996-1.261-8.135-5.257-9.224-3.996-1.089-8.114 1.252-9.204 5.248-.629 1.372-6.79 4.705-20.997 5.673a15.545 15.545 0 0 0-13.738 10.627c-1.564 4.693-.85 9.719 1.961 13.791 2.81 4.071 7.256 6.521 12.198 6.722l22.069.901c12.069.494 23.326-5.741 29.413-15.887l75.654-.839a58.974 58.974 0 0 0 22.688-4.788l77.779-33.334 10.064 22.632a22.243 22.243 0 0 0 12.16 12.561 22.172 22.172 0 0 0 8.558 1.713c3.138 0 6.274-.662 9.178-1.981 7.657-3.48 12.756-11.162 12.988-19.569l.779-28.056a7.5 7.5 0 0 0-7.289-7.705c-4.121-.109-7.59 3.148-7.705 7.289l-.779 28.057a7.217 7.217 0 0 1-4.201 6.33 7.1 7.1 0 0 1-5.737.087 7.1 7.1 0 0 1-3.966-4.147 7.171 7.171 0 0 0-.188-.465l-10.774-24.23 24.333-18.886a35.941 35.941 0 0 1 29.382-6.809 35.945 35.945 0 0 1 24.248 17.937l.925 1.687c-4.883 4.475-12.383 8.005-15.357 9.153a7.5 7.5 0 0 0 5.372 14.005c1.274-.488 9.85-3.889 17.337-9.754l.078.143-14.863 20.678a39.875 39.875 0 0 0-7.542 23.501l.017 7.671a52.648 52.648 0 0 1-16.052-4.578 7.5 7.5 0 0 0-6.344 13.592 67.55 67.55 0 0 0 26.37 6.295l-22.817 79.492zm33.841-95.203l-.016-7.303a24.957 24.957 0 0 1 4.722-14.713l14.307-19.905 2.809 1.021 6.166 16.188c-4.05 12.841-14.728 22.264-27.988 24.712z"/></symbol><symbol viewBox="0 0 31.49 31.49" id="right-arrow" xmlns="http://www.w3.org/2000/svg"><path d="M21.205 5.007a1.112 1.112 0 0 0-1.587 0 1.12 1.12 0 0 0 0 1.571l8.047 8.047H1.111A1.106 1.106 0 0 0 0 15.737c0 .619.492 1.127 1.111 1.127h26.554l-8.047 8.032c-.429.444-.429 1.159 0 1.587a1.112 1.112 0 0 0 1.587 0l9.952-9.952a1.093 1.093 0 0 0 0-1.571l-9.952-9.953z"/></symbol><symbol viewBox="0 0 393.3 241.4" id="stylus" xmlns="http://www.w3.org/2000/svg"><path d="M60.6 187.8c10.2-12.2 11.4-24.8 3.5-48.2-5-14.8-13.3-26.2-7.2-35.4 6.5-9.8 20.3-.3 8.8 12.8l2.3 1.6c13.8 1.6 20.6-17.3 10.3-22.7-27.2-14.2-51 13.1-40.5 44.7 4.5 13.4 10.8 27.6 5.7 38.9-4.4 9.7-12.9 15.4-18.6 15.6-11.9.6-4-26.7 9.7-33.5 1.2-.6 2.9-1.4 1.3-3.4C19 156.3 9.1 164.1 3.4 175c-16.6 31.7 31.5 43.4 57.2 12.8zm297-93.2c3.9 9.6 9.8 19.1 6.3 27.5-2.9 7.2-6.7 10.2-10.9 10.9-5.9 1-4.3-17.5 5.8-23 .9-.5 2.2-2.9 1-4.3-12.8-.7-20 5.4-23.9 13.5-11.3 23.7 25.6 30.2 43.7 6.9 7.2-9.3 7.5-18.5.6-35.2-4.4-10.6-11.1-18.5-6.9-25.5 4.5-7.4 15.3-1 7.2 8.9l1.8 1c10.5.6 14.8-13.4 6.8-16.9-21.1-9-40.8 13.7-31.5 36.2z"/><path d="M224 69.3c-7.3-5.8-27.8 3.9-33.6 18.3-7.3 18.3-18.1 45-28.7 56.7-11.2 12.3-12.3 2.8-11.2-4.3 2.6-16.7 18.9-55.4 27.8-66.3-3.3-4.9-24.9-4.2-39.9 19.1-5.6 8.8-18.4 38.1-32.6 61.2-3.1 5-7 1.5-4-10.2 3.4-13.5 13.4-50.6 26.3-79.8 33.8-6.7 69.7-11.4 97.2-11.5 3.7-1 6.2-4.3 0-4.5-23.7-.8-59.3 2-92.6 6.2 6.4-12.8 13.3-23 20.3-27.3-7.6-4.8-23-2.9-31.8 10.1-3.9 5.8-7.8 12.8-11.5 20.4-24.4 3.8-45.3 8.1-55.9 12.1-11 4.2-9.8 17.5-3.1 15 13.9-5.2 32.7-10.6 53.6-15.4-13.3 30-23.7 65.4-26.2 79.8-6.2 35 15.5 34.8 26.1 21 11.5-15.1 35.5-68.2 39.2-73.8 1.1-1.9 2.6-.9 1.8.8-26.8 53.5-24.5 74.2-2.8 69.6 9.8-2.1 26.7-18.9 31.1-27.6.9-2.1 2.8-1.9 2.4-1-17 44.1-38.6 79.8-53.1 91-13.2 10.1-23-11.8 23.7-43.2 6.9-4.7 3.7-11.1-4.1-8.9-24.1 3.8-93.1 25.7-123.4 46.7-2.3 1.6-4.4 2.9-4.3 6.2.1 1.9 3.4 1.2 5 .2 39.2-23.5 71.3-32.7 108.1-40.4.5.2 1.1.3 1.6.1 1.7-.4 1.6.5.5 1.2-2.5 1.4-5 2.7-5.6 2.9-24.8 9.7-39.8 31.1-34.5 42 4.5 9.4 28.8 6 40.3-.2 28.2-15.3 48.7-45.3 62.7-86.7 12.2-36.7 27.6-78.3 31.2-79.5zM387.9 154c-45.9-6-144.9 2-188.6 13.6-13 3.4-9.4 10.3-2.8 9 .1 0 2.9-.7 3-.7 35.9-7 123-13.1 173.8-3.4 6.1 1.1 24.4-17.2 14.6-18.5zm-151.1-5.4c12.8-6.4 31.8-46 44.3-67.7.9-1.6 2.5-.3 1.6.8-31.6 54.4-18.2 60.7-5.7 59.9 16.7-1 32.1-25 35.5-30.4 1.4-2.1 2.2-.4 1.4 1.1-.8 2.5-3.7 6.9-6.4 12.9-3.8 8.5.2 11.8 3.5 13.3 5.2 2.5 19.4.9 21.6-7.8-14.2-.3 19.8-67.3 23.3-71.4-9.5-5.5-24.2.5-30.9 13.7-14.3 28.3-26.3 51.1-33.8 51.5-14.6.8 16.8-63.1 21.9-65.1-3.1-4.5-23-2.6-34.1 14.6-4 6.2-28.4 49.4-34.4 56.5-10.6 12.6-11.4 1.8-8.4-10.8 1-4.3 2.7-9.8 4.9-15.9 7-15.8 14.5-20.8 19.1-25.9 30.9-34.3 48.6-62.1 41.6-73-6.2-9.7-26.9-5.4-40.2 14.6-24.5 36.7-47.1 87-50 110-2.8 23 13.9 24.7 25.2 19.1zm13-67.3c1.1-2.5 1.8-3.2 3.7-7.4 11-24.2 24.8-49.7 34.3-61.6 5.9-6.2 14.2 2.2-.8 25.2-8.8 13.6-18.8 26.1-29.7 37.1v.1c-2.8 3.1-5.3 5.7-6.4 7.2-.8 1-1.7.8-1.1-.6z"/></symbol><symbol viewBox="0 0 471.362 471.362" id="terminal" xmlns="http://www.w3.org/2000/svg"><path d="M468.794 355.171c-1.707-1.718-3.897-2.57-6.563-2.57H188.145c-2.664 0-4.854.853-6.567 2.57-1.711 1.711-2.565 3.897-2.565 6.563v18.274c0 2.662.854 4.853 2.565 6.563 1.713 1.712 3.903 2.57 6.567 2.57h274.086c2.666 0 4.856-.858 6.563-2.57 1.711-1.711 2.567-3.901 2.567-6.563v-18.274c.004-2.666-.848-4.852-2.567-6.563zM30.259 85.075c-1.903-1.903-4.093-2.856-6.567-2.856s-4.661.953-6.563 2.856L2.852 99.353C.95 101.255 0 103.442 0 105.918c0 2.478.95 4.664 2.852 6.567L115.06 224.69 2.852 336.896C.95 338.799 0 340.989 0 343.46c0 2.478.95 4.665 2.852 6.567L17.128 364.3c1.903 1.906 4.089 2.854 6.563 2.854s4.665-.951 6.567-2.854l133.048-133.045c1.903-1.902 2.853-4.096 2.853-6.57 0-2.473-.95-4.663-2.853-6.565L30.259 85.075z"/></symbol><symbol viewBox="0 0 512 512" id="wind" xmlns="http://www.w3.org/2000/svg"><path d="M6.979 271.181c30.288 25.979 64.616 55.426 131.017 55.426 66.403-.001 100.733-29.447 131.022-55.426 28.644-24.568 53.382-45.787 104.98-45.787 51.599 0 76.337 21.219 104.98 45.787 8.385 7.191 21.011 6.225 28.202-2.159 7.191-8.385 6.225-21.011-2.16-28.202-30.289-25.979-64.619-55.426-131.022-55.426S273.265 214.84 242.976 240.82c-28.644 24.568-53.382 45.787-104.98 45.787-51.597 0-76.332-21.218-104.974-45.787-8.384-7.191-21.01-6.226-28.202 2.159-7.192 8.384-6.225 21.011 2.159 28.202z"/><path d="M6.979 161.787c30.287 25.98 64.615 55.426 131.017 55.426 66.403 0 100.733-29.446 131.022-55.426C297.662 137.219 322.399 116 373.998 116c51.597 0 76.335 21.218 104.98 45.787 8.385 7.193 21.01 6.224 28.201-2.161 7.192-8.384 6.223-21.012-2.161-28.202C474.729 105.444 440.399 76 373.998 76c-66.403 0-100.733 29.446-131.022 55.426-28.644 24.568-53.382 45.787-104.98 45.787-51.596 0-76.332-21.218-104.974-45.787-8.384-7.192-21.011-6.226-28.202 2.159-7.192 8.384-6.225 21.011 2.159 28.202zM505.02 350.213c-30.289-25.979-64.619-55.426-131.022-55.426s-100.733 29.446-131.022 55.426C214.332 374.781 189.594 396 137.996 396c-51.594 0-76.331-21.218-104.973-45.785l-.002-.002c-8.384-7.189-21.009-6.223-28.201 2.16-7.191 8.384-6.224 21.011 2.16 28.202C37.268 406.555 71.597 436 137.996 436c66.403 0 100.733-29.446 131.022-55.426 28.644-24.568 53.382-45.787 104.98-45.787 51.599 0 76.337 21.219 104.98 45.787 8.385 7.191 21.011 6.225 28.202-2.159 7.191-8.385 6.225-21.011-2.16-28.202z"/></symbol></svg>