<?xml version="1.0" encoding="utf-8"?><svg xmlns="http://www.w3.org/2000/svg" xmlns:xlink="http://www.w3.org/1999/xlink"><symbol viewBox="0 0 512.001 512.001" id="004-share" xmlns="http://www.w3.org/2000/svg"><path d="M437.997 364.004c-16.802 0-32.304 5.638-44.74 15.108l-72.646-72.646c9.176-11.766 14.898-25.752 16.728-40.341h43.247c4.281 13.882 17.229 24 32.496 24 18.748 0 33.999-15.252 33.999-33.999s-15.252-33.999-33.999-33.999c-15.268 0-28.216 10.118-32.496 23.999h-43.194a81.586 81.586 0 0 0-2.276-11.727c-1.45-5.33-6.948-8.475-12.275-7.023-5.329 1.45-8.473 6.946-7.023 12.275 5.833 21.437-.289 44.499-15.979 60.187-24.172 24.174-63.507 24.174-87.679 0-24.173-24.172-24.173-63.506 0-87.679 15.288-15.289 36.999-21.461 58.08-16.512 5.374 1.258 10.759-2.073 12.021-7.45 1.262-5.376-2.073-10.758-7.45-12.021-24.578-5.77-49.808-.094-69.294 15.198l-72.63-72.63c9.472-12.436 15.112-27.941 15.112-44.744-.001-40.805-33.197-74-74-74S.001 33.195.001 73.998s33.195 73.998 73.998 73.998c16.804 0 32.308-5.64 44.745-15.112l72.648 72.648c-23.109 29.543-23.109 71.383 0 100.928l-37.305 37.305c-3.905 3.905-3.905 10.237 0 14.143 1.953 1.953 4.512 2.929 7.071 2.929s5.119-.976 7.071-2.929l37.305-37.305c14.772 11.554 32.611 17.354 50.464 17.354s35.692-5.8 50.464-17.354l72.649 72.649c-9.475 12.437-15.116 27.943-15.116 44.749 0 40.803 33.195 73.998 73.998 73.998s73.998-33.195 73.998-73.998-33.191-73.997-73.994-73.997zm-24.915-121.879c7.72 0 14 6.28 14 14s-6.28 14-14 14-14-6.28-14-14 6.28-14 14-14zM74 127.998c-29.775 0-53.999-24.223-53.999-53.999S44.225 20.001 74 20.001c29.775 0 53.999 24.223 53.999 53.999S103.776 127.998 74 127.998zm363.997 364.003c-29.775 0-53.999-24.223-53.999-53.999 0-14.435 5.704-27.554 14.963-37.252.331-.257.655-.529.959-.833.304-.304.575-.627.832-.957 9.697-9.255 22.814-14.957 37.245-14.957 29.775 0 53.999 24.223 53.999 53.999s-24.224 53.999-53.999 53.999zM80.004 373.995c-31.98 0-57.999 26.018-57.999 57.999s26.018 57.999 57.999 57.999c31.98 0 57.999-26.018 57.999-57.999s-26.018-57.999-57.999-57.999zm0 95.998c-20.953 0-37.999-17.047-37.999-37.999s17.047-37.999 37.999-37.999c20.953 0 37.999 17.047 37.999 37.999s-17.046 37.999-37.999 37.999z"/><path d="M314.341 198.377l-.359-.362c-3.905-3.905-10.237-3.905-14.143 0-3.905 3.905-3.905 10.237 0 14.143l.259.261a9.968 9.968 0 0 0 7.122 2.979 9.97 9.97 0 0 0 7.021-2.879c3.933-3.877 3.978-10.209.1-14.142zM145.573 366.425a10.066 10.066 0 0 0-7.07-2.92c-2.64 0-5.21 1.06-7.08 2.92a10.066 10.066 0 0 0-2.92 7.07c0 2.64 1.06 5.21 2.92 7.08a10.09 10.09 0 0 0 7.08 2.92c2.63 0 5.21-1.06 7.07-2.92a10.1 10.1 0 0 0 2.93-7.08c0-2.63-1.07-5.21-2.93-7.07zM454.001.007c-31.98 0-57.999 26.018-57.999 57.999 0 12.384 3.914 23.863 10.552 33.295l-78.626 78.626c-3.905 3.905-3.905 10.237 0 14.143a9.966 9.966 0 0 0 7.071 2.929 9.966 9.966 0 0 0 7.071-2.929l78.625-78.625c9.433 6.643 20.918 10.56 33.306 10.56 31.98 0 57.999-26.018 57.999-57.999S485.982.007 454.001.007zm0 95.999c-20.953 0-37.999-17.047-37.999-37.999 0-20.953 17.047-37.999 37.999-37.999 20.953 0 37.999 17.047 37.999 37.999s-17.046 37.999-37.999 37.999zm-198 129.992c-16.542 0-29.999 13.458-29.999 29.999s13.458 29.999 29.999 29.999S286 272.539 286 255.998s-13.458-30-29.999-30zm0 39.999c-5.514 0-10-4.486-10-10s4.486-10 10-10 10 4.486 10 10-4.487 10-10 10z"/></symbol><symbol class="bsvg-inline--fa bfa-behance-square bfa-w-14" viewBox="0 0 448 512" id="behance" xmlns="http://www.w3.org/2000/svg"><path d="M186.5 293c0 19.3-14 25.4-31.2 25.4h-45.1v-52.9h46c18.6.1 30.3 7.8 30.3 27.5zm-7.7-82.3c0-17.7-13.7-21.9-28.9-21.9h-39.6v44.8H153c15.1 0 25.8-6.6 25.8-22.9zm132.3 23.2c-18.3 0-30.5 11.4-31.7 29.7h62.2c-1.7-18.5-11.3-29.7-30.5-29.7zM448 80v352c0 26.5-21.5 48-48 48H48c-26.5 0-48-21.5-48-48V80c0-26.5 21.5-48 48-48h352c26.5 0 48 21.5 48 48zM271.7 185h77.8v-18.9h-77.8V185zm-43 110.3c0-24.1-11.4-44.9-35-51.6 17.2-8.2 26.2-17.7 26.2-37 0-38.2-28.5-47.5-61.4-47.5H68v192h93.1c34.9-.2 67.6-16.9 67.6-55.9zM380 280.5c0-41.1-24.1-75.4-67.6-75.4-42.4 0-71.1 31.8-71.1 73.6 0 43.3 27.3 73 71.1 73 33.2 0 54.7-14.9 65.1-46.8h-33.7c-3.7 11.9-18.6 18.1-30.2 18.1-22.4 0-34.1-13.1-34.1-35.3h100.2c.1-2.3.3-4.8.3-7.2z"/></symbol><symbol class="csvg-inline--fa cfa-facebook cfa-w-14" viewBox="0 0 448 512" id="facebook" xmlns="http://www.w3.org/2000/svg"><path d="M448 56.7v398.5c0 13.7-11.1 24.7-24.7 24.7H309.1V306.5h58.2l8.7-67.6h-67v-43.2c0-19.6 5.4-32.9 33.5-32.9h35.8v-60.5c-6.2-.8-27.4-2.7-52.2-2.7-51.6 0-87 31.5-87 89.4v49.9h-58.4v67.6h58.4V480H24.7C11.1 480 0 468.9 0 455.3V56.7C0 43.1 11.1 32 24.7 32h398.5c13.7 0 24.8 11.1 24.8 24.7z"/></symbol><symbol class="dsvg-inline--fa dfa-github-square dfa-w-14" viewBox="0 0 448 512" id="github" xmlns="http://www.w3.org/2000/svg"><path d="M400 32H48C21.5 32 0 53.5 0 80v352c0 26.5 21.5 48 48 48h352c26.5 0 48-21.5 48-48V80c0-26.5-21.5-48-48-48zM277.3 415.7c-8.4 1.5-11.5-3.7-11.5-8 0-5.4.2-33 .2-55.3 0-15.6-5.2-25.5-11.3-30.7 37-4.1 76-9.2 76-73.1 0-18.2-6.5-27.3-17.1-39 1.7-4.3 7.4-22-1.7-45-13.9-4.3-45.7 17.9-45.7 17.9-13.2-3.7-27.5-5.6-41.6-5.6-14.1 0-28.4 1.9-41.6 5.6 0 0-31.8-22.2-45.7-17.9-9.1 22.9-3.5 40.6-1.7 45-10.6 11.7-15.6 20.8-15.6 39 0 63.6 37.3 69 74.3 73.1-4.8 4.3-9.1 11.7-10.6 22.3-9.5 4.3-33.8 11.7-48.3-13.9-9.1-15.8-25.5-17.1-25.5-17.1-16.2-.2-1.1 10.2-1.1 10.2 10.8 5 18.4 24.2 18.4 24.2 9.7 29.7 56.1 19.7 56.1 19.7 0 13.9.2 36.5.2 40.6 0 4.3-3 9.5-11.5 8-66-22.1-112.2-84.9-112.2-158.3 0-91.8 70.2-161.5 162-161.5S388 165.6 388 257.4c.1 73.4-44.7 136.3-110.7 158.3zm-98.1-61.1c-1.9.4-3.7-.4-3.9-1.7-.2-1.5 1.1-2.8 3-3.2 1.9-.2 3.7.6 3.9 1.9.3 1.3-1 2.6-3 3zm-9.5-.9c0 1.3-1.5 2.4-3.5 2.4-2.2.2-3.7-.9-3.7-2.4 0-1.3 1.5-2.4 3.5-2.4 1.9-.2 3.7.9 3.7 2.4zm-13.7-1.1c-.4 1.3-2.4 1.9-4.1 1.3-1.9-.4-3.2-1.9-2.8-3.2.4-1.3 2.4-1.9 4.1-1.5 2 .6 3.3 2.1 2.8 3.4zm-12.3-5.4c-.9 1.1-2.8.9-4.3-.6-1.5-1.3-1.9-3.2-.9-4.1.9-1.1 2.8-.9 4.3.6 1.3 1.3 1.8 3.3.9 4.1zm-9.1-9.1c-.9.6-2.6 0-3.7-1.5s-1.1-3.2 0-3.9c1.1-.9 2.8-.2 3.7 1.3 1.1 1.5 1.1 3.3 0 4.1zm-6.5-9.7c-.9.9-2.4.4-3.5-.6-1.1-1.3-1.3-2.8-.4-3.5.9-.9 2.4-.4 3.5.6 1.1 1.3 1.3 2.8.4 3.5zm-6.7-7.4c-.4.9-1.7 1.1-2.8.4-1.3-.6-1.9-1.7-1.5-2.6.4-.6 1.5-.9 2.8-.4 1.3.7 1.9 1.8 1.5 2.6z"/></symbol><symbol class="esvg-inline--fa efa-linkedin efa-w-14" viewBox="0 0 448 512" id="linkedin" xmlns="http://www.w3.org/2000/svg"><path d="M416 32H31.9C14.3 32 0 46.5 0 64.3v383.4C0 465.5 14.3 480 31.9 480H416c17.6 0 32-14.5 32-32.3V64.3c0-17.8-14.4-32.3-32-32.3zM135.4 416H69V202.2h66.5V416zm-33.2-243c-21.3 0-38.5-17.3-38.5-38.5S80.9 96 102.2 96c21.2 0 38.5 17.3 38.5 38.5 0 21.3-17.2 38.5-38.5 38.5zm282.1 243h-66.4V312c0-24.8-.5-56.7-34.5-56.7-34.6 0-39.9 27-39.9 54.9V416h-66.4V202.2h63.7v29.2h.9c8.9-16.8 30.6-34.5 62.9-34.5 67.2 0 79.7 44.3 79.7 101.9V416z"/></symbol><symbol viewBox="0 0 31.49 31.49" id="right-arrow" xmlns="http://www.w3.org/2000/svg"><path d="M21.205 5.007a1.112 1.112 0 0 0-1.587 0 1.12 1.12 0 0 0 0 1.571l8.047 8.047H1.111A1.106 1.106 0 0 0 0 15.737c0 .619.492 1.127 1.111 1.127h26.554l-8.047 8.032c-.429.444-.429 1.159 0 1.587a1.112 1.112 0 0 0 1.587 0l9.952-9.952a1.093 1.093 0 0 0 0-1.571l-9.952-9.953z"/></symbol></svg>